<svg id="Capsulas" xmlns="http://www.w3.org/2000/svg" viewBox="0 0 16 16"><g id="Blue"><ellipse id="shadow" cx="5.02" cy="15.71" rx="1.72" ry="0.51" style="opacity:0.4"/><g id="blue-capsule"><rect x="1.54" y="0.5" width="5.21" height="13.93" rx="2.27" style="fill:#fff"/><rect x="1.43" y="0.5" width="5.21" height="13.93" rx="2.27" style="fill:#1b1464"/><rect x="0.88" y="0.5" width="5.21" height="13.93" rx="2.27" style="fill:#1b1464"/><rect x="1.1" y="0.5" width="5.21" height="13.93" rx="2.27" style="fill:#0071bc"/><rect x="-3.57" y="7.37" width="9.66" height="0.19" rx="0.08" transform="translate(-6.2 8.73) rotate(-90)" style="fill:#fff"/><line x1="0.88" y1="7.5" x2="6.64" y2="7.43" style="fill:none;stroke:#333;stroke-miterlimit:10;stroke-width:0.25px"/></g></g><g id="Red"><ellipse id="shadow-2" data-name="shadow" cx="13.55" cy="15.71" rx="1.72" ry="0.51" style="opacity:0.4"/><g id="red-capsule"><rect x="10.06" y="0.5" width="5.21" height="13.93" rx="2.27" style="fill:#fff"/><rect x="9.96" y="0.5" width="5.21" height="13.93" rx="2.27" style="fill:#42210b"/><rect x="9.41" y="0.5" width="5.21" height="13.93" rx="2.27" style="fill:#42210b"/><rect x="9.63" y="0.5" width="5.21" height="13.93" rx="2.27" style="fill:#c1272d"/><rect x="4.96" y="7.37" width="9.66" height="0.19" rx="0.08" transform="translate(2.32 17.25) rotate(-90)" style="fill:#fff"/><line x1="9.41" y1="7.5" x2="15.17" y2="7.43" style="fill:none;stroke:#333;stroke-miterlimit:10;stroke-width:0.25px"/></g></g></svg>