<svg xmlns="http://www.w3.org/2000/svg" viewBox="0 0 16 16"><defs><style>.cls-1{fill:#ff7bac;}.cls-2{fill:#d91a60;}.cls-3{fill:#324001;}.cls-4{fill:#7c8c03;}.cls-5{fill:#4d4d4d;stroke:#4d4d4d;stroke-miterlimit:10;stroke-width:0.5px;}.cls-6{fill:#fcee21;}</style></defs><g id="Logo_50_x_50" data-name="Logo 50 x 50"><g id="Nopal_Logo_Sin_M" data-name="Nopal Logo Sin M"><g id="Tuna_6" data-name="Tuna 6"><path class="cls-1" d="M2.35,4.17A1.19,1.19,0,0,0,3.77,5a1.13,1.13,0,0,0,.39-1.54,2.22,2.22,0,0,0-.82-1c-.09,0-.28.11-.6.25s-.55.11-.61.25C1.91,3.39,2.33,4.12,2.35,4.17Z"/><path class="cls-2" d="M2.42,4.36a1.19,1.19,0,0,0,1.42.79,1.12,1.12,0,0,0,.39-1.54c0-.09-.36-.84-.82-1-.09,0-.28.11-.6.25s-.55.11-.61.25A1.83,1.83,0,0,0,2.42,4.36Z"/></g><g id="Tuna_5" data-name="Tuna 5"><path class="cls-1" d="M4.56,2.44a1.17,1.17,0,0,0,1.28,1A1.13,1.13,0,0,0,6.47,2,2.21,2.21,0,0,0,5.83.82c-.08-.06-.3.06-.64.15s-.56,0-.63.16A1.8,1.8,0,0,0,4.56,2.44Z"/><path class="cls-2" d="M4.6,2.63a1.18,1.18,0,0,0,1.27,1,1.13,1.13,0,0,0,.64-1.46A2.21,2.21,0,0,0,5.87,1c-.08-.06-.3.06-.64.15s-.56,0-.63.16A1.77,1.77,0,0,0,4.6,2.63Z"/></g><g id="Tuna_7" data-name="Tuna 7"><path class="cls-1" d="M.66,6.63a1.19,1.19,0,0,0,1.56.49,1.1,1.1,0,0,0,0-1.58c-.06-.08-.53-.75-1-.86-.1,0-.25.17-.54.37s-.51.22-.53.36C.07,6,.63,6.59.66,6.63Z"/><path class="cls-2" d="M.77,6.8a1.21,1.21,0,0,0,1.56.5,1.12,1.12,0,0,0,0-1.59c-.06-.08-.53-.75-1-.86-.1,0-.25.17-.54.37s-.51.22-.53.36C.18,6.13.74,6.76.77,6.8Z"/></g><path class="cls-3" d="M14.47,9.41c0,2.58-.66,2.7-2.3,4.6-1.41,1.64-1.64,1.9-4.11,1.9S5.66,15.65,4,14s-2.39-2.14-2.3-4.6c.1-2.93,2.55-6.51,6.4-6.51A6.46,6.46,0,0,1,14.47,9.41Z"/><path class="cls-4" d="M13.81,9.41c0,2.58-.66,2.7-2.3,4.6-1.41,1.64-1.64,1.9-4.11,1.9S5,15.65,3.3,14,.91,11.87,1,9.41C1.11,6.48,3.55,2.9,7.4,2.9A6.46,6.46,0,0,1,13.81,9.41Z"/><g id="Tuna_1" data-name="Tuna 1"><path class="cls-1" d="M15.32,6.63a1.19,1.19,0,0,1-1.56.49,1.1,1.1,0,0,1,0-1.58c.06-.08.53-.75,1-.86.1,0,.26.17.54.37s.51.22.54.36C15.91,6,15.35,6.59,15.32,6.63Z"/><path class="cls-2" d="M15.7,5.58c0-.14-.31-.2-.54-.36s-.44-.39-.54-.37c-.49.11-1,.78-1,.86a1.43,1.43,0,0,0-.28,1.07,1.26,1.26,0,0,1,.41.56,1.24,1.24,0,0,0,1.48-.54S15.8,6.13,15.7,5.58Z"/></g><g id="Tuna_2" data-name="Tuna 2"><path class="cls-1" d="M13.94,4.17A1.19,1.19,0,0,1,12.52,5a1.13,1.13,0,0,1-.39-1.54,2.16,2.16,0,0,1,.82-1c.09,0,.28.11.6.25s.55.11.61.25C14.38,3.39,14,4.12,13.94,4.17Z"/><path class="cls-2" d="M14.09,3.07c-.06-.14-.35-.14-.61-.25s-.51-.3-.6-.25c-.46.2-.78,1-.82,1A1.43,1.43,0,0,0,12,4.7a1.2,1.2,0,0,1,.57.49,1.25,1.25,0,0,0,1.29-.83A1.83,1.83,0,0,0,14.09,3.07Z"/></g><g id="Tuna_3" data-name="Tuna 3"><path class="cls-1" d="M11.68,2.44a1.17,1.17,0,0,1-1.28,1A1.13,1.13,0,0,1,9.77,2,2.13,2.13,0,0,1,10.41.82c.08-.06.3.06.64.15s.56,0,.63.16A1.8,1.8,0,0,1,11.68,2.44Z"/><path class="cls-2" d="M11.64,1.33c-.07-.12-.36-.09-.63-.16S10.45,1,10.37,1a2.13,2.13,0,0,0-.64,1.15A1.33,1.33,0,0,0,10,3.41a1.43,1.43,0,0,1,.72.22,1.3,1.3,0,0,0,.94-1A1.77,1.77,0,0,0,11.64,1.33Z"/></g><g id="Tuna_4" data-name="Tuna 4"><path class="cls-1" d="M9.06,1.57a1.16,1.16,0,0,1-1,1.27,1.16,1.16,0,0,1-1-1.27A2.23,2.23,0,0,1,7.42.3c.07-.08.31,0,.66,0s.55-.1.65,0A1.8,1.8,0,0,1,9.06,1.57Z"/><path class="cls-2" d="M7.75,3a1.39,1.39,0,0,1,.3,0,1.37,1.37,0,0,1,.36,0,1.3,1.3,0,0,0,.66-1.2A1.83,1.83,0,0,0,8.75.5c-.11-.1-.37,0-.66,0S7.5.43,7.43.5A2.23,2.23,0,0,0,7.1,1.77,1.29,1.29,0,0,0,7.75,3Z"/></g><ellipse class="cls-5" cx="3.44" cy="6.87" rx="0.19" ry="0.16" transform="translate(-4.24 6.84) rotate(-63.18)"/><ellipse class="cls-5" cx="3.84" cy="14.16" rx="0.13" ry="0.17" transform="matrix(0.92, -0.4, 0.4, 0.92, -5.29, 2.67)"/><ellipse class="cls-5" cx="5.28" cy="12.49" rx="0.1" ry="0.12" transform="translate(-3.23 1.93) rotate(-15.97)"/><ellipse class="cls-5" cx="9.73" cy="13.25" rx="0.14" ry="0.16" transform="translate(-1.68 1.41) rotate(-7.64)"/><ellipse class="cls-5" cx="7.77" cy="10.98" rx="0.11" ry="0.14"/><ellipse class="cls-5" cx="7.48" cy="13.72" rx="0.12" ry="0.14" transform="translate(-0.36 0.2) rotate(-1.51)"/><ellipse class="cls-5" cx="10.2" cy="11.09" rx="0.11" ry="0.09" transform="translate(-1.78 20.23) rotate(-84.74)"/><ellipse class="cls-5" cx="9.53" cy="8.92" rx="0.12" ry="0.09" transform="translate(-0.38 17.41) rotate(-83.68)"/><ellipse class="cls-5" cx="11.09" cy="7.44" rx="0.11" ry="0.13" transform="translate(-0.18 0.27) rotate(-1.4)"/><ellipse class="cls-5" cx="12.23" cy="9.56" rx="0.1" ry="0.12"/><ellipse class="cls-5" cx="13.14" cy="11.33" rx="0.12" ry="0.21" transform="matrix(1, -0.09, 0.09, 1, -0.93, 1.18)"/><ellipse class="cls-5" cx="12.7" cy="7.01" rx="0.09" ry="0.21" transform="translate(-1.69 5.13) rotate(-21.47)"/><ellipse class="cls-5" cx="8.84" cy="5.39" rx="0.08" ry="0.1" transform="translate(0.71 11.8) rotate(-69.57)"/><ellipse class="cls-5" cx="9.91" cy="4.28" rx="0.1" ry="0.16" transform="translate(2.4 12.04) rotate(-69.3)"/><ellipse class="cls-5" cx="3.18" cy="11.03" rx="0.16" ry="0.12" transform="translate(-8.25 12.11) rotate(-79.29)"/><ellipse class="cls-5" cx="2.84" cy="9.3" rx="0.16" ry="0.12" transform="translate(-6.83 10.37) rotate(-79.29)"/><ellipse class="cls-5" cx="5.47" cy="9.48" rx="0.14" ry="0.11" transform="translate(-5.22 11.87) rotate(-72.62)"/><ellipse class="cls-5" cx="6.84" cy="7.72" rx="0.18" ry="0.12" transform="translate(-1.53 13.75) rotate(-84.23)"/><ellipse class="cls-5" cx="1.47" cy="10" rx="0.14" ry="0.27" transform="translate(-0.33 0.05) rotate(-1.89)"/><ellipse class="cls-5" cx="1.89" cy="6.83" rx="0.27" ry="0.13" transform="translate(-5.18 7.34) rotate(-78.64)"/><ellipse class="cls-5" cx="5.47" cy="4.77" rx="0.11" ry="0.13" transform="matrix(0.99, -0.14, 0.14, 0.99, -0.62, 0.83)"/><ellipse class="cls-5" cx="6.77" cy="5.79" rx="0.09" ry="0.11" transform="translate(-0.18 0.21) rotate(-1.79)"/><g id="Espinas"><path class="cls-6" d="M3.41,6.85a.52.52,0,0,1-.36-.26c-.09-.11-.17-.23-.25-.35h0a3.32,3.32,0,0,1,.36.26.47.47,0,0,1,.26.35Z"/><path class="cls-6" d="M6.78,7.66A1.07,1.07,0,0,1,6,7.8a.88.88,0,0,0-.7.21h0A.92.92,0,0,1,6,7.64a2.84,2.84,0,0,1,.77,0Z"/><path class="cls-6" d="M1.45,10a2,2,0,0,1-.5.75c-.19.23-.4.45-.6.67l0,0,.5-.75A2,2,0,0,1,1.44,10Z"/><path class="cls-6" d="M1.81,6.75a.61.61,0,0,1-.48,0L.86,6.57v0l.48,0a.58.58,0,0,1,.46.16Z"/><path class="cls-6" d="M7.74,10.91a.72.72,0,0,1-.26-.45c0-.16-.09-.33-.13-.5h0c.09.14.18.29.26.44a.67.67,0,0,1,.13.5Z"/><path class="cls-6" d="M7.73,11.07a.78.78,0,0,1-.15.52c-.09.15-.18.31-.28.46h0l.15-.52a.73.73,0,0,1,.28-.46Z"/><path class="cls-6" d="M13.13,11.29a2.06,2.06,0,0,1,1-.31,7.17,7.17,0,0,1,1-.08v0c-.34.06-.68.13-1,.21a3.53,3.53,0,0,1-1,.18Z"/><path class="cls-6" d="M9.83,4.29A1.66,1.66,0,0,1,9,4.13l-.75-.29v0c.26,0,.53.1.79.16a1.61,1.61,0,0,1,.75.29Z"/><path class="cls-6" d="M12.71,6.94a.51.51,0,0,1,.43-.12l.45,0v0L13.16,7a.51.51,0,0,1-.45,0Z"/><path class="cls-6" d="M12.67,7.05a.4.4,0,0,1,0,.38l-.12.36h0a2.48,2.48,0,0,1,0-.38.37.37,0,0,1,.12-.36Z"/><path class="cls-6" d="M5.45,4.75a2.37,2.37,0,0,1-.86.45l-.92.32v0l.86-.45a2.4,2.4,0,0,1,.92-.32Z"/><path class="cls-6" d="M5.52,4.63a.22.22,0,0,1,0-.27c0-.08.07-.16.11-.25h0a2.3,2.3,0,0,1,0,.26.21.21,0,0,1-.1.25Z"/><path class="cls-6" d="M6.76,5.76A.61.61,0,0,1,7.17,6l.31.36v0l-.41-.25a.59.59,0,0,1-.31-.36Z"/><path class="cls-6" d="M8.81,5.41a.24.24,0,0,1-.28-.06l-.21-.19h0a1.27,1.27,0,0,1,.28.06q.15,0,.21.18Z"/><path class="cls-6" d="M8.88,5.45a.58.58,0,0,1-.22.41l-.33.33h0c.07-.14.14-.28.22-.42a.59.59,0,0,1,.33-.33Z"/><path class="cls-6" d="M9.52,8.93a2.06,2.06,0,0,1,.9.55,6.56,6.56,0,0,1,.73.76l0,0a8.35,8.35,0,0,0-.81-.66A3.85,3.85,0,0,1,9.51,9Z"/><path class="cls-6" d="M11.11,7.36a.4.4,0,0,1-.39.07l-.39-.07v0l.39-.07a.4.4,0,0,1,.39.07Z"/><path class="cls-6" d="M12.24,9.49A2.28,2.28,0,0,1,13.09,9L14,8.63v0l-.86.49a2.43,2.43,0,0,1-.91.37Z"/><path class="cls-6" d="M10.13,11.13a.53.53,0,0,1-.35-.26c-.09-.12-.17-.24-.25-.37h0l.35.27a.51.51,0,0,1,.25.36Z"/><path class="cls-6" d="M5.5,9.49a.51.51,0,0,1-.34.3,3,3,0,0,1-.41.18h0a3.17,3.17,0,0,1,.34-.3.55.55,0,0,1,.41-.19Z"/><path class="cls-6" d="M5.32,9.42A.69.69,0,0,1,4.9,9.1l-.32-.42h0A4.63,4.63,0,0,1,5,9a.7.7,0,0,1,.33.42Z"/><path class="cls-6" d="M2.83,9.33a2.42,2.42,0,0,1-1-.22C1.55,9,1.24,8.88.93,8.75v0L1.9,9a2.47,2.47,0,0,1,.93.36Z"/><path class="cls-6" d="M2.92,9.25c0-.12.05-.19.14-.2L3.29,9V9a1.43,1.43,0,0,1-.14.2c0,.08-.11.11-.23.09Z"/><path class="cls-6" d="M3.14,10.92a2.79,2.79,0,0,1,1,.07l1,.21v0l-1-.07a2.59,2.59,0,0,1-1-.21Z"/><path class="cls-6" d="M5.3,12.47a1.68,1.68,0,0,1-.82.14H3.65v0l.81-.14a1.67,1.67,0,0,1,.83,0Z"/><path class="cls-6" d="M5.35,12.42A.38.38,0,0,1,5.56,12,.68.68,0,0,1,6,11.85v0a.78.78,0,0,0-.38.23,1.67,1.67,0,0,1-.29.33Z"/><path class="cls-6" d="M3.75,14.12A1.39,1.39,0,0,1,3,14l-.69-.24v0l.73.1a1.31,1.31,0,0,1,.69.24Z"/><path class="cls-6" d="M3.88,14.14a1.23,1.23,0,0,1,.67-.25l.72-.11h0c-.22.09-.45.18-.68.25a1.22,1.22,0,0,1-.71.12Z"/><path class="cls-6" d="M7.45,13.61a2.79,2.79,0,0,1,.9-.74,11.26,11.26,0,0,1,1-.54v0c-.32.21-.64.43-1,.66a4.29,4.29,0,0,1-1,.62Z"/><path class="cls-6" d="M9.72,13.22a.7.7,0,0,1-.51.15H8.68v0l.51-.15a.74.74,0,0,1,.53,0Z"/><path class="cls-6" d="M9.78,13.22a1,1,0,0,1,.55.35l.46.46v0c-.19-.11-.37-.23-.55-.35a1,1,0,0,1-.46-.47Z"/><path class="cls-6" d="M7.47,13.83a.51.51,0,0,1-.25.27,1.35,1.35,0,0,0-.25.28H7A.85.85,0,0,1,7.1,14a.32.32,0,0,1,.36-.18Z"/><path class="cls-6" d="M13.1,11.46a1.66,1.66,0,0,0-.32,0,1.43,1.43,0,0,0-.29,0,.79.79,0,0,0-.49.34h0a.81.81,0,0,1,.46-.48.56.56,0,0,1,.67.11Z"/></g></g></g></svg>