<?xml version="1.0" encoding="UTF-8"?>
    <svg viewBox="0 0 200 200" xmlns="http://www.w3.org/2000/svg">
        <path
                fill="#C63830"
                d="M39.4,-45.3C55,-42.9,74.3,-36.6,82,-24C89.7,-11.4,85.7,7.6,75.3,19.7C64.8,31.9,47.9,37.2,34.2,42.5C20.6,47.7,10.3,53,-0.9,54.1C-12,55.3,-24,52.5,-39.6,47.8C-55.1,43.2,-74.2,36.8,-76.5,25.8C-78.9,14.8,-64.4,-0.7,-56.4,-16.2C-48.4,-31.6,-46.8,-47,-38.5,-51.8C-30.2,-56.6,-15.1,-50.8,-1.6,-48.6C11.9,-46.4,23.8,-47.8,39.4,-45.3Z"
                transform="translate(100 100)"
        />
    </svg>