<?xml version="1.0" encoding="UTF-8"?><svg xmlns="http://www.w3.org/2000/svg" viewBox="0 0 1366 768"><g id="a"/><g id="b"/><g id="c"/><g id="d"/><g id="e"/><g id="f"/><g id="g"><g id="h"><path d="M29.56073,78.92282c124.537,6.63421,242.14378-51.14189,366.50759-46.11165,14.6742,.59354,32.47061,.37648,45.35998,8.48541,6.60681,4.15646,11.48805,11.14093,8.73725,19.08584-2.34698,6.77859-10.72153,14.6705-17.67366,8.65931l-.30358,2.35587c35.41767-19.30358,77.81845-23.68196,117.34274-27.36984,41.73264-3.89394,83.77956-4.40159,125.59519-1.54002,21.39495,1.46412,42.73013,3.80659,63.92948,7.04446,19.04569,2.90894,38.70602,5.70653,57.10749,11.5803,18.07428,5.76933,36.15196,17.6685,39.74799,37.70847,3.11924,17.38294-8.87598,30.02169-23.57667,36.71184-13.43311,6.11329-28.12604,8.65541-42.01372,13.46704-14.20499,4.92156-27.30686,12.5796-38.92431,22.08595-25.5614,20.91643-43.198,49.91338-54.28496,80.72812-12.98115,36.07938-17.71197,74.54861-21.66366,112.48968-3.97402,38.15546-6.34614,76.62629-4.19684,114.97761,2.05762,36.71546,8.35005,73.44558,21.65329,107.84206,7.78051,20.11708,26.23965,64.94361,55.79466,47.2819,4.43882-2.65258,7.38544-6.66996,8.47806-11.71561,.26695-1.23275-1.03255-2.4047-2.2035-1.69397-24.3539,14.78218-26.39821,52.81985-3.19456,69.58693,16.25143,11.74337,38.67305,12.86867,57.81255,15.77758,24.26159,3.68739,48.55354,7.17477,72.87273,10.46086,96.15239,12.99245,192.72576,22.85514,289.52115,29.54658,55.29601,3.8226,110.66116,6.59683,166.06065,8.36648,1.93104,.06168,1.92892-2.93838,0-3-91.34651-2.91791-182.59865-8.60032-273.59535-17.11029-91.49374-8.55645-182.87709-19.62523-273.61947-34.17636-19.64894-3.15083-43.02549-8.48239-50.32843-29.63357-5.88008-17.03019,.38007-37.75611,15.98488-47.22782l-2.2035-1.69397c-1.75627,8.11032-9.27447,12.4866-17.18881,12.93372-9.27993,.52426-17.0383-5.01575-22.66482-11.94267-11.64718-14.33908-18.24707-33.998-23.88255-51.32868-11.81626-36.33829-16.40615-74.61767-17.02552-112.71103-.60687-37.32381,2.49725-74.62463,6.81462-111.66793,4.61168-39.56842,11.15468-79.91269,28.65691-116.09644,14.43173-29.83587,36.86126-56.9879,66.58926-72.47636,13.31251-6.9359,27.74544-10.18058,41.99721-14.53025,11.84262-3.61439,24.66167-8.1434,33.17514-17.60623,8.89922-9.8916,10.74594-23.52055,5.91919-35.77985-5.48811-13.93906-17.37049-23.46222-30.84808-29.20014-17.21827-7.33047-36.57758-10.00377-54.90996-13.076-18.95816-3.17709-38.03605-5.6541-57.17673-7.42548-46.28066-4.28305-92.94482-4.42436-139.24935-.40363-41.62406,3.61431-86.53057,7.90426-123.81658,28.22614-.80427,.43835-1.02711,1.73026-.30358,2.35587,6.81497,5.89259,15.18416,2.13107,19.89824-4.55078,6.27622-8.89606,3.92845-19.0043-4.26198-25.71214-9.9432-8.14333-23.92832-9.28168-36.22109-10.26606-17.46106-1.39825-35.01352-1.42486-52.49724-.43597-70.2068,3.97095-138.16294,23.697-207.0773,36.09373-39.80791,7.16089-80.15904,11.78801-120.65047,9.63099-1.92931-.10278-1.92365,2.89753,0,3h0Z" style="fill:#044040;"/></g></g><g id="i"/><g id="j"/><g id="k"/></svg>