<?xml version="1.0" encoding="UTF-8"?><svg xmlns="http://www.w3.org/2000/svg" viewBox="0 0 150 210"><g id="a"/><g id="b"/><g id="c"/><g id="d"/><g id="e"/><g id="f"/><g id="g"/><g id="h"><g><path d="M43.01465,198.24536c-8.87573,3.28711-18.1604,5.32593-26.49121,7.09326,3.33301-.73438,6.66699-1.44946,9.9856-2.31543-4.97803,1.26465-9.26221,1.89087-14.44946,2.36499,1.43384-.85669,4.81787-1.00708,5.46802-1.93481,6.08838-1.22021,12.21533-2.41235,18.33057-3.70483,6.10132-1.36865,12.19312-2.82446,18.15015-4.64795-1.99634,1.67578-3.94702,2.23145-5.7854,2.45166-1.84814,.19629-3.5769,.12622-5.20825,.69312Z" style="fill:#044040;"/><path d="M-1.62231,206.68726c1.2251-.1958,2.41821-.38647,3.59692-.57495-1.24512,.26709-2.47437,.51074-3.59692,.57495Z" style="fill:#044040;"/><path d="M106.07178,146.73047c.75659-1.17236,1.42578-2.4104,2.17871-3.53125-.62598,1.21729-1.36108,2.40552-2.17871,3.53125Z" style="fill:#044040;"/><path d="M56.99683,188.61743c.6311-.42065,1.28857-.78369,1.94604-1.18188,2.6189-1.12036,5.30713-2.14526,7.91699-3.42163,1.30884-.6272,2.65796-1.19067,3.95459-1.87598,1.30371-.677,2.61255-1.35669,3.92676-2.03906-5.59033,3.1709-11.48315,6.84644-17.74438,8.51855Z" style="fill:#044040;"/><path d="M50.69019,189.36182c-1.34277,.51294-2.69946,1.00562-4.06226,1.4729-1.37427,.43091-2.76099,.81738-4.14209,1.18506-.69214,.17554-1.38232,.35059-2.07007,.5249-.69604,.13818-1.3894,.27612-2.07959,.41333-1.38184,.25928-2.75317,.48657-4.10645,.67505,1.3418-.23047,2.69727-.48999,4.06421-.77075,.68311-.14551,1.36938-.2915,2.05884-.43823,.68213-.17651,1.36743-.354,2.05518-.53223,1.37402-.36768,2.75903-.74536,4.14526-1.15234,1.37158-.45679,2.75146-.91626,4.13696-1.37769Z" style="fill:#044040;"/><path d="M116.66357,105.85791c-.15088-.02881-.22461-.16211-.26416-.33691,.01489-.16479,.00586-.32007-.03711-.46094,.85693-2.0061,1.74536-4.00659,2.55786-6.03784-.07446,.54224,.06934,1.1123-.09497,1.63989-.97119,2.22754-1.73804,2.50415-2.16162,5.1958Z" style="fill:#044040;"/><path d="M105.18652,148.00659l-.02222,.16528c-.25513,.40723-.50635,.80835-.75684,1.20801l-.13965,.10815c.28394-.50757,.59351-.9978,.9187-1.48145Z" style="fill:#044040;"/><path d="M115.65942,108.44214c-.28076-.05518-.56445-.11011-.8396-.01099,.51147-1.11816,1.02173-2.23291,1.53149-3.34766,.00879,.1582,.01929,.30981,.0481,.4375-.08423,.8335-.78149,1.9397-.73999,2.92114Z" style="fill:#044040;"/><path d="M101.88013,132.28467c-.38647,.65161-.24829,1.52979-.31421,1.91211-1.3313,1.50073-2.79614,2.86816-4.26904,4.64819-.06958,.38892-.51123,.99463-.69678,1.73853-.44019,.20093-.87134,.44653-1.29761,.72412,1.57178-1.96313,3.01416-4.07666,4.52466-6.18433,.71729-1.08618,1.43945-2.17944,2.16675-3.28052,.74146-1.09326,1.39966-2.26074,2.12207-3.39771-.68921,1.26709-1.35181,2.59766-2.23584,3.8396Z" style="fill:#044040;"/><path d="M134.47705,8.22534c.32886,7.43018-1.35181,15.93408-.06445,23.17896,1.28027-8.41113,1.77759-20.11816,4.30322-21.33594,2.53516-1.21997,.06812,11.63379-.02808,18.28516q.29028-.87329,.57935-1.74365c-.29126,.87109-.57544,1.74341-.30811,2.53564,.58618-1.74072,1.17554-5.14844,2.02808-6.1062l.552,1.58594c2.00903-4.45288,2.55249-12.88574,4.49097-17.34766-3.1853,10.90894-4.23877,24.00195-5.12402,37.75171-.88062,13.73755-1.7146,28.22339-4.23047,41.61792-2.20776,15.06348-4.52881,29.37354-8.15479,42.9834-.77002,2.52661-3.79663,8.0918-6.27271,11.896-3.67114,7.15576-7.95361,14.05444-12.48901,20.89429-5.18823,6.99512-11.66479,12.98145-18.73853,18.14014-7.09082,5.16235-14.79614,9.48901-22.92896,13.58521-3.29932,1.59229-8.70923,1.38379-1.0481-2.93896,6.1604-3.95508,12.34302-7.92847,18.37964-12.22632-.13013,.55664-.95508,1.30688-1.92822,2.00317-.9729,.69751-2.04224,1.42676-2.5791,2.11938,1.21411-.64673,2.3728-1.27661,3.49438-1.90967,1.09106-.68628,2.14844-1.37109,3.19287-2.07056,2.1189-1.35352,4.06494-2.94727,6.14185-4.70923-1.39282,1.16431-2.75806,2.37036-4.18091,3.49268l-4.34033,3.27026c1.7998-1.37891,3.70581-2.70337,5.54834-4.19897,.91431-.75757,1.83691-1.52222,2.76611-2.29248,.93066-.76807,1.86865-1.54028,2.75049-2.39233,.8938-.83618,1.79224-1.677,2.69434-2.52075,.90308-.84253,1.72534-1.76685,2.5874-2.65625,1.73877-1.7688,3.31787-3.68262,4.88037-5.59448,1.19922-1.35083,2.67358-2.31006,4.19287-3.51807,1.53149-1.19385,2.86401-2.81152,3.68555-5.37134-8.18579,9.92236-18.23877,18.8103-28.90601,26.34863,.00806-.0293,.021-.05933,.02051-.08618-.58472,.43628-1.16235,.86719-1.73462,1.29395-.59351,.39185-1.1814,.78003-1.76489,1.16528-1.17407,.76001-2.33081,1.50903-3.48218,2.25464-1.17017,.70923-2.35986,1.36621-3.54248,2.05347-1.18848,.67456-2.36621,1.39307-3.60913,2.01294,1.50244-.85278,2.93164-1.92993,4.33203-2.55859-7.37183,3.47754-14.60938,6.67603-22.00122,9.37158,4.92261-2.64551,10.00537-5.20825,15.02832-8.11084,2.5459-1.37183,5.01807-2.94092,7.53638-4.43726,1.25781-.75073,2.46216-1.60718,3.7019-2.40137,1.23218-.80786,2.47852-1.5957,3.65942-2.49146l3.59448-2.604c1.17383-.90234,2.31079-1.85571,3.46558-2.78149l1.7229-1.39868c.56079-.48169,1.10059-.98804,1.65039-1.48096,1.08203-1.00464,2.21216-1.95874,3.2395-3.00732,4.2251-4.08813,7.94775-8.55737,11.19629-13.1499-1.17383,1.09033-2.40552,2.29175-3.52979,3.64185-1.11206,1.36035-2.30859,2.72241-3.46289,4.09009-1.13379,1.3855-2.36499,2.65625-3.58716,3.78638-.61108,.56519-1.22241,1.09229-1.83765,1.56128-.64038,.44409-1.28174,.83301-1.92358,1.14966,1.93701-1.69214,3.67749-3.58203,5.52588-5.37476,1.71704-1.91016,3.54663-3.73853,5.17627-5.74194,3.40796-3.89136,6.50513-8.07153,9.50903-12.38354-.32812,.71313-.64941,1.41162-.97363,2.11646,4.38647-4.96655,7.15869-11.46484,10.12549-17.22729,.27246-.51562,.54248-1.02612,.81641-1.54443-.27002,.51099-.54321,1.02783-.81641,1.54443-2.84106,5.26538-5.8269,10.34277-9.15186,15.11084,.57617-1.20996,1.23315-2.41284,1.98511-3.6626,.71753-1.26807,1.50122-2.59863,2.40259-4.02417-1.37036,1.32031-2.81299,3.5022-4.42847,5.58008l-1.3833,2.16895c-.46826,.71777-.97583,1.41113-1.46265,2.11548-.98486,1.40137-1.94971,2.81006-3.02295,4.13354l1.14062-1.60449c.34937-.55298,.69775-1.10474,1.04492-1.65454,.6792-1.10791,1.36426-2.2002,1.97339-3.31763,1.17847-2.25903,2.3186-4.46069,3.17139-6.68359-3.94873,5.85938-8.05957,11.84839-12.7771,17.12793l1.78174-2.30103,1.67725-2.37402c1.14355-1.56299,2.18359-3.19385,3.2229-4.82178,3.82544-5.23682,7.27856-10.82227,10.30518-16.7146l-.27856,.70752,.61621-1.37793c.57031-1.16162,1.177-2.3125,1.7146-3.49707,.53149-1.18774,1.06421-2.37842,1.59814-3.57227,.86426-2.18311,1.38623-4.45312,1.81689-6.71802l.37036-1.09351c-.01172,.77051,.10034,1.19165,.69263-.09692,2.7334-5.45874,3.45508-12.06714,6.0249-18.53711,.65356-1.7085,1.09277-4.12598,1.41553-6.75049,.32056-.66553,.28296-1.05786,.16846-1.42407,.06763-.56494,.13623-1.13794,.20459-1.70972,.26099-1.37622,.46045-2.76807,.52881-4.15063-.22021,1.34399-.3418,2.75269-.52881,4.15063-.08643,.5188-.17236,1.03491-.25781,1.54736-.13477-.39136-.3064-.80884-.16919-1.57031-.98779,4.71606-2.20093,9.47314-3.53296,14.25146-1.40479,4.75708-2.85034,9.55444-4.54614,14.28979,.01074-.6355,.10596-1.50586,.09814-1.88306l-.46851,2.97656c-1.10034,3.05615-2.20337,6.11572-3.38672,9.15308,.25122-.94922,.42041-1.85718,.45874-2.69482-3.70898,8.45386-7.78198,16.83618-12.84448,24.71411-5.2063,7.06055-11.00391,13.55664-17.4812,19.22241,.99854-.62817,1.90967-1.37524,2.84912-2.11523,.92383-.75537,1.88623-1.4978,2.76953-2.3313,1.76416-1.66919,3.55859-3.38379,5.18066-5.27905-4.07568,5.22461-8.64648,10.11499-13.72876,14.42188-5.05054,4.34692-10.66919,7.98145-16.51953,11.03271,1.64648-1.89844,3.9729-4.28149,4.56787-6.00513-.39648-.41602-3.96924,1.65942-2.13086,.0769,.80713-.76147,1.61084-1.44849,2.3833-2.10645,.74829-.69116,1.48096-1.33105,2.19092-1.93286,.71509-.59351,1.39941-1.16113,2.05298-1.70337,.64478-.55176,1.22583-1.11768,1.78613-1.64404,1.10645-1.06909,2.07642-2.04932,2.76562-3.08862,.66528-1.06567,1.09253-2.14062,1.18994-3.30127-.06177-.53931-2.32275,.25049-4.33423,.74707-2.05957,.45776-3.81006,.70679-2.87744-.45947,.42847-.44043,.94971-.95532,1.54517-1.5271,.5686-.59888,1.20239-1.26636,1.88452-1.98486,1.40527-1.38501,2.88086-3.10938,4.46411-4.83252,.99927-.9165,1.9436-1.9646,2.94263-3.02637,.16675-.09521,.23657-.43994,.34106-.85596,1.5603-2.021,3.14502-3.93286,4.42188-5.72583,.64917-.88623,1.29517-1.677,1.82959-2.42651,.5354-.74902,1.02197-1.40283,1.44336-1.93701,.62598-.79443,1.26392-1.56836,1.83105-2.39819,.42285-.35352,.85059-.61572,1.28271-.76099,.14771-.65503,.34619-1.27856,.58228-1.87646,1.4873-2.25098,2.95142-4.49731,4.23096-6.84253,.93115-1.18726,1.89014-2.36841,2.71069-3.61987-.19434-.05811-.53809,.04175-.59521-.29932,.75977-1.49487,1.52466-2.98218,2.1936-4.51807,.69287-1.52319,1.39331-3.03931,2.00073-4.60034,.72559-1.17529,1.55664-2.19653,2.42578-3.06836-.21753-2.03491,.65283-4.91187,1.63818-8.06348,1.00537-3.1394,2.16895-6.5415,2.74658-9.43311l-.06543-.00806c.39258-1.42407,.72925-2.88086,1.07178-4.34424,.35449-1.45898,.69507-2.93115,1.00098-4.42529,.26782-.45874,.55957-.8894,.87646-1.28589-.14722-.79736,.00293-1.57422-.08594-1.97485,.64038-2.35962,1.41431-4.31421,2.08374-6.31543-.09009-.39575-.55322-1.18652-.44751-1.9812,.3186-1.57397,.48438-3.12622,.646-4.63818,.31274-1.75537,.57935-3.54639,.87109-5.35522,.98047-6.09106,1.89282-12.14087,2.75757-18.18066,.23682-.18066,.52197-.21094,.80762-.24414-.31128-.9668,.04956-2.27466-.104-3.1333,.08618,.1665,.19409,.27441,.34619,.25684-.32593-2.81177,.37109-3.30469,.72192-5.80444,.01611-.56641-.24976-1.1084-.31274-1.67065,.03613-.27417,.07251-.54956,.10913-.82812,1.37573-2.80151,1.02808-5.66479,1.14966-8.84619l1.16772-9.53857c.27612-2.52563,1.1106-3.48438,1.66724-5.23022Z" style="fill:#044040;"/><path d="M119.21338,98.27905c1.08765-2.64893,2.06006-5.33911,3.04785-8.0376-.78027,2.9646-1.04346,5.75684-3.04785,8.0376Z" style="fill:#044040;"/><path d="M78.2439,160.21094c-1.12988,.27734-2.33374,.66553-3.53003,1.21265,5.53857-3.94409,10.53369-8.43726,15.16235-13.59448l.05371,.0376c-1.7334,2.17725-4.23291,4.4646-6.5144,6.55322-1.16968,1.01514-2.18262,2.10107-3.12842,3.02271-.9248,.94385-1.64478,1.87134-2.04321,2.76831Z" style="fill:#044040;"/><path d="M116.39941,105.521c-.02881-.12769-.03931-.2793-.0481-.4375,.00513-.00708,.00732-.01318,.01099-.02344,.04297,.14087,.052,.29614,.03711,.46094Z" style="fill:#044040;"/><path d="M72.96436,177.01392c-.21802,.1189-.43066,.23511-.64722,.35327,1.57422-1.00806,3.04565-2.177,4.57715-3.24731-1.14062,.97852-2.46362,2.00806-3.92993,2.89404Z" style="fill:#044040;"/><path d="M54.72583,185.36719c-1.73682,.77148-3.47241,1.55518-5.25293,2.23096-1.77319,.69312-3.52979,1.43921-5.33569,2.04712-2.36035,.66748-4.70483,1.30176-7.06055,1.74707-1.17407,.23462-2.33813,.46265-3.50049,.64526-1.16846,.16235-2.32886,.30151-3.47949,.41309,8.27734-1.87964,16.52222-4.10571,24.62915-7.0835Z" style="fill:#044040;"/><path d="M66.94263,167.15088c-1.3562,.51392-2.76001,.96606-4.13623,1.45068,1.2749-.67993,2.5415-1.35547,3.80469-2.02881-.1333,.3042,.20215,.41943,.33154,.57812Z" style="fill:#044040;"/><path d="M85.40405,167.54272l-.87231,.73242c.63428-.75488,1.27173-1.51343,1.90894-2.27173-.18628,.32642-.70752,1.0105-1.03662,1.53931Z" style="fill:#044040;"/><path d="M52.61987,172.96533c.99878-.38843,1.99219-.7749,2.98096-1.15942-.52612,.36694-1.0271,.7749-1.51001,1.24121-.43384-.12207-.93213-.13989-1.47095-.08179Z" style="fill:#044040;"/><path d="M36.88135,178.89404c-1.43091,.44141-2.85938,.78711-4.2229,1.10596,1.6394-.56665,3.35352-1.07764,4.98047-1.69189-.31641,.31616-.56128,.58521-.75757,.58594Z" style="fill:#044040;"/></g></g><g id="i"/><g id="j"/><g id="k"/><g id="l"/></svg>